<?xml version="1.0" standalone="no"?>
<!DOCTYPE svg PUBLIC "-//W3C//DTD SVG 20010904//EN"
 "http://www.w3.org/TR/2001/REC-SVG-20010904/DTD/svg10.dtd">
<svg version="1.0" xmlns="http://www.w3.org/2000/svg"
 width="512.000000pt" height="512.000000pt" viewBox="0 0 512.000000 512.000000"
 preserveAspectRatio="xMidYMid meet">

<g transform="translate(0.000000,512.000000) scale(0.100000,-0.100000)"
fill="#000000" stroke="none">
<path d="M2271 4904 c-19 -24 -21 -40 -21 -173 l0 -146 -88 -17 c-329 -64
-640 -251 -825 -497 -202 -269 -274 -651 -186 -986 78 -298 286 -513 651 -671
91 -40 276 -104 393 -137 l50 -14 3 -467 c1 -270 -2 -466 -7 -466 -29 0 -184
60 -297 115 -153 74 -275 154 -398 259 -112 96 -125 98 -193 18 -102 -119
-380 -468 -386 -485 -12 -33 13 -66 110 -147 309 -257 668 -428 1056 -502
l117 -23 0 -161 c0 -148 2 -163 21 -188 l20 -26 283 0 c275 0 283 1 302 21 17
18 19 40 22 179 l3 157 92 13 c415 55 774 256 967 540 142 210 211 488 190
765 -42 525 -376 831 -1125 1030 l-120 32 -3 446 c-1 246 0 447 2 447 17 0
206 -79 285 -120 116 -60 208 -120 315 -206 81 -65 115 -77 148 -51 18 13 379
501 398 537 18 33 -2 67 -73 126 -274 227 -611 386 -959 454 l-117 23 -3 153
c-3 133 -5 155 -22 173 -19 20 -27 21 -302 21 l-283 0 -20 -26z m489 -269 c0
-184 -5 -176 135 -195 333 -45 679 -195 965 -420 l31 -25 -103 -140 c-57 -77
-123 -166 -146 -198 l-43 -57 -57 43 c-161 124 -356 229 -544 291 -142 47
-181 53 -213 32 l-25 -16 0 -555 c0 -486 2 -555 15 -569 17 -16 22 -18 195
-61 508 -128 823 -321 953 -587 25 -51 53 -121 62 -155 39 -154 37 -373 -5
-538 -28 -114 -116 -284 -192 -375 -196 -232 -499 -376 -883 -420 -151 -17
-145 -9 -145 -200 l0 -160 -185 0 -185 0 0 164 c0 163 0 165 -25 184 -14 11
-49 22 -82 26 -361 42 -796 230 -1085 468 l-68 56 156 191 155 191 62 -52
c136 -113 345 -235 523 -304 113 -43 258 -84 301 -84 65 0 63 -17 63 606 0
521 -1 563 -17 582 -12 14 -54 30 -118 48 -489 130 -782 313 -909 566 -54 109
-73 176 -87 313 -19 189 15 375 101 550 157 319 488 543 904 610 128 21 126
17 126 197 l0 148 185 0 185 0 0 -155z"/>
<path d="M2240 3971 c-294 -94 -474 -362 -419 -623 30 -141 123 -245 294 -331
152 -76 227 -93 258 -59 15 17 17 66 17 505 0 474 -1 488 -20 507 -24 24 -57
25 -130 1z m10 -506 c0 -195 -3 -355 -6 -355 -3 0 -41 18 -84 41 -104 54 -173
125 -196 205 -35 120 3 251 101 348 50 51 147 115 173 116 9 0 12 -78 12 -355z"/>
<path d="M2786 2239 l-26 -20 0 -522 c0 -287 4 -527 8 -533 17 -25 50 -33 103
-25 278 46 485 185 560 379 31 79 38 236 14 318 -52 180 -223 306 -551 403
-86 25 -76 25 -108 0z m188 -174 c181 -68 286 -145 326 -237 19 -44 22 -65 18
-142 -5 -102 -30 -165 -94 -236 -60 -66 -191 -137 -287 -155 l-37 -7 0 401 c0
220 2 401 4 401 2 0 34 -11 70 -25z"/>
</g>
</svg>
