<?xml version="1.0" standalone="no"?>
<!DOCTYPE svg PUBLIC "-//W3C//DTD SVG 20010904//EN"
 "http://www.w3.org/TR/2001/REC-SVG-20010904/DTD/svg10.dtd">
<svg version="1.0" xmlns="http://www.w3.org/2000/svg"
 width="512.000000pt" height="512.000000pt" viewBox="0 0 512.000000 512.000000"
 preserveAspectRatio="xMidYMid meet">

<g transform="translate(0.000000,512.000000) scale(0.100000,-0.100000)"
fill="#000000" stroke="none">
<path d="M105 5106 c-42 -18 -93 -79 -100 -118 -3 -18 -4 -999 -3 -2179 l3
-2146 29 -37 c39 -52 95 -76 179 -76 l67 0 0 -65 c0 -71 18 -126 53 -163 36
-38 57 -46 147 -52 l85 -5 5 -80 c6 -95 27 -132 93 -164 43 -21 47 -21 1248
-21 l1204 0 367 368 368 367 0 388 0 387 68 0 c143 0 335 46 490 116 93 43
112 59 112 96 0 40 -16 67 -47 79 -21 8 -42 1 -126 -37 -368 -169 -790 -128
-1111 108 l-69 50 370 370 369 369 502 -132 c473 -125 502 -134 496 -154 -17
-59 -101 -212 -158 -290 -36 -48 -66 -95 -66 -105 0 -34 39 -70 77 -70 42 0
78 35 154 150 87 131 148 275 186 442 24 106 24 375 -1 486 -55 255 -173 470
-355 645 -219 211 -485 328 -783 344 l-107 6 -3 237 -3 237 -29 37 c-39 52
-95 76 -177 76 l-66 0 -5 74 c-9 132 -64 186 -199 194 l-79 5 0 37 c0 63 -19
140 -41 172 -12 17 -40 39 -63 49 -39 18 -99 19 -1546 18 -1222 0 -1511 -2
-1535 -13z m3025 -155 c5 -11 10 -40 10 -65 l0 -46 -879 0 c-873 0 -878 0
-905 -21 -33 -26 -36 -79 -6 -109 20 -20 33 -20 1033 -20 775 0 1016 -3 1025
-12 7 -7 12 -34 12 -60 l0 -48 -1368 -2 -1368 -3 -41 -27 c-80 -53 -73 145
-73 -2107 l0 -2012 -67 3 -68 3 -3 2119 c-1 1558 1 2122 9 2132 9 11 68 14
290 14 266 0 280 1 299 20 30 30 27 83 -7 110 -26 21 -34 21 -323 18 -288 -3
-296 -4 -332 -26 -20 -13 -47 -40 -60 -60 l-23 -37 -3 -2008 -2 -2008 -63 3
-62 3 -3 2120 c-1 1166 0 2126 3 2133 3 9 310 12 1484 12 1453 0 1480 0 1491
-19z m568 -758 c3 -247 10 -224 -73 -238 -72 -12 -199 -56 -286 -100 -330
-163 -558 -444 -656 -805 -34 -129 -44 -380 -19 -515 69 -374 289 -685 614
-869 84 -48 222 -102 307 -121 39 -8 80 -18 93 -20 l22 -5 0 -335 0 -335 -262
0 c-150 0 -279 -5 -300 -10 -48 -14 -97 -55 -114 -97 -11 -25 -14 -99 -14
-313 l0 -280 -1142 2 -1143 3 -3 2120 c-1 1166 0 2126 3 2133 3 10 306 12
1487 10 l1483 -3 3 -222z m363 -378 c46 -8 110 -22 141 -32 l57 -18 -220 -490
-220 -490 -379 -379 -378 -379 -51 69 c-96 130 -166 289 -195 444 -20 105 -21
304 -1 407 84 443 432 787 878 868 98 18 267 18 368 0z m421 -164 c326 -213
522 -621 481 -1005 -6 -53 -12 -98 -14 -100 -4 -4 -950 243 -957 250 -6 4 401
904 409 904 3 0 40 -22 81 -49z m-1103 -3169 l-214 -218 -3 210 c-2 161 1 211
10 218 7 4 105 8 217 8 l203 0 -213 -218z"/>
<path d="M1161 3854 c-24 -31 -26 -43 -9 -79 7 -16 24 -29 47 -36 24 -7 285
-9 779 -7 l744 3 19 24 c25 30 24 76 -1 101 -20 20 -33 20 -789 20 l-770 0
-20 -26z"/>
<path d="M1161 3304 c-12 -15 -21 -33 -21 -40 0 -28 24 -63 49 -74 18 -7 205
-10 610 -8 l583 3 19 24 c25 30 24 76 -1 101 -20 20 -33 20 -619 20 l-600 0
-20 -26z"/>
<path d="M1161 2754 c-12 -15 -21 -33 -21 -40 0 -28 24 -63 49 -74 18 -7 182
-10 530 -8 l503 3 19 24 c25 30 24 72 -1 99 l-21 22 -519 0 -519 0 -20 -26z"/>
<path d="M1670 1920 c-19 -19 -20 -33 -20 -265 l0 -245 -169 0 -170 0 -20 -26
c-20 -26 -21 -39 -21 -304 l0 -277 -41 -6 c-22 -3 -49 -13 -60 -23 -25 -23
-25 -78 1 -104 20 -20 33 -20 740 -20 707 0 720 0 740 20 46 46 13 117 -58
127 l-42 6 0 372 c0 362 -1 373 -21 399 l-20 26 -170 0 -169 0 0 148 c0 206
20 192 -260 192 -207 0 -221 -1 -240 -20z m350 -625 l0 -495 -110 0 -110 0 0
495 0 495 110 0 110 0 0 -495z m380 -170 l0 -325 -115 0 -115 0 0 325 0 325
115 0 115 0 0 -325z m-750 -95 l0 -230 -115 0 -115 0 0 230 0 230 115 0 115 0
0 -230z"/>
</g>
</svg>
