<?xml version="1.0" standalone="no"?>
<!DOCTYPE svg PUBLIC "-//W3C//DTD SVG 20010904//EN"
 "http://www.w3.org/TR/2001/REC-SVG-20010904/DTD/svg10.dtd">
<svg version="1.0" xmlns="http://www.w3.org/2000/svg"
 width="800.000000pt" height="239.000000pt" viewBox="0 0 800.000000 239.000000"
 preserveAspectRatio="xMidYMid meet">

<g transform="translate(0.000000,239.000000) scale(0.100000,-0.100000)"
fill="#000000" stroke="none">
<path d="M1360 2206 c-212 -94 -396 -176 -409 -182 -21 -9 22 -30 384 -192
225 -100 410 -180 412 -178 2 1 2 165 1 364 l-3 360 -385 -172z"/>
<path d="M1810 2014 c0 -207 4 -364 9 -362 5 2 189 84 410 182 l401 179 -43
20 c-23 10 -184 82 -357 159 -173 78 -339 151 -367 164 l-53 24 0 -366z"/>
<path d="M440 1796 c-212 -94 -395 -176 -408 -181 -20 -9 33 -35 385 -192
l408 -182 3 185 c1 102 1 265 0 363 l-3 179 -385 -172z"/>
<path d="M890 1604 c0 -212 4 -364 9 -362 36 13 811 362 809 364 -3 2 -731
327 -785 351 l-33 13 0 -366z"/>
<path d="M1338 1378 c-224 -100 -407 -183 -405 -184 1 -1 184 -83 407 -183
l405 -180 3 185 c1 102 1 266 0 364 l-3 179 -407 -181z"/>
<path d="M4360 1339 c0 -139 -1 -151 -17 -145 -10 4 -60 10 -113 13 -272 16
-380 -99 -380 -406 0 -281 82 -388 310 -407 147 -12 341 32 361 83 5 14 9 235
9 519 l0 494 -85 0 -85 0 0 -151z m-17 -284 c16 -7 17 -28 17 -255 l0 -248
-44 -11 c-114 -29 -231 -1 -268 64 -40 71 -47 287 -11 376 15 38 46 65 92 80
29 10 186 5 214 -6z"/>
<path d="M2370 1404 c-41 -7 -76 -13 -77 -13 -2 -1 -3 -44 -3 -96 l0 -95 -65
0 -65 0 0 -68 0 -68 63 0 62 -1 5 -269 c4 -201 8 -275 19 -294 49 -89 149
-126 284 -104 34 6 37 9 37 39 0 18 -3 47 -6 64 -6 30 -7 31 -65 31 -101 0
-99 -4 -99 284 0 186 3 245 13 248 6 2 42 4 80 3 l67 -1 0 68 0 68 -80 0 -80
0 0 110 c0 61 -3 109 -7 109 -5 -1 -42 -7 -83 -15z"/>
<path d="M7040 1408 c-108 -15 -100 -6 -100 -113 l0 -95 -70 0 -71 0 3 -67 3
-68 65 -1 65 -1 5 -269 c6 -311 9 -325 89 -372 41 -24 56 -27 143 -27 53 0 99
3 103 7 4 4 4 34 0 67 l-7 61 -58 0 c-42 0 -64 5 -81 19 l-24 19 0 248 0 248
80 1 80 0 3 67 3 67 -83 3 -83 3 -5 105 -5 105 -55 -7z"/>
<path d="M2878 1200 c-72 -12 -148 -40 -169 -61 -18 -18 -19 -40 -19 -379 l0
-361 83 3 82 3 3 322 2 321 71 12 c38 7 88 10 109 8 38 -3 39 -2 44 32 3 19 7
51 8 70 l3 35 -85 2 c-47 0 -106 -3 -132 -7z"/>
<path d="M3252 1196 c-51 -7 -95 -16 -98 -19 -3 -2 -2 -33 2 -67 l7 -62 45 6
c25 3 95 9 156 12 128 7 185 -4 215 -42 21 -26 38 -90 28 -101 -4 -3 -63 -9
-133 -14 -163 -10 -223 -24 -273 -59 -55 -41 -83 -98 -89 -186 -11 -178 73
-260 277 -271 110 -6 254 15 332 48 l49 21 0 272 c0 151 -5 287 -10 307 -17
62 -51 102 -113 133 -53 27 -69 29 -180 32 -67 2 -164 -3 -215 -10z m358 -521
c0 -143 3 -140 -162 -140 -115 0 -118 1 -145 28 -24 24 -28 34 -27 87 1 91 29
112 174 134 14 2 55 4 93 5 l67 1 0 -115z"/>
<path d="M4853 1200 c-94 -19 -172 -83 -204 -169 -26 -71 -38 -208 -28 -319
14 -151 62 -239 157 -286 56 -29 181 -42 272 -28 95 13 146 38 192 91 61 71
73 124 73 311 0 133 -4 175 -18 216 -21 62 -76 128 -126 153 -74 38 -214 51
-318 31z m225 -154 c59 -31 77 -87 77 -246 -1 -116 -4 -142 -22 -182 -32 -70
-100 -97 -210 -83 -104 13 -143 85 -143 265 0 152 34 238 103 260 46 14 157 6
195 -14z"/>
<path d="M6270 1200 c-36 -5 -80 -12 -99 -15 l-34 -6 6 -60 c3 -34 7 -63 10
-65 2 -3 58 1 123 7 235 23 314 -5 314 -111 0 -34 -6 -36 -172 -45 -129 -7
-197 -26 -245 -68 -54 -47 -73 -97 -72 -192 1 -95 13 -135 58 -180 52 -53 115
-70 261 -70 129 1 213 14 285 45 39 17 42 21 49 65 10 79 7 470 -5 526 -14 67
-71 131 -137 154 -55 20 -243 28 -342 15z m320 -529 c0 -104 -2 -120 -17 -126
-10 -4 -63 -10 -118 -12 -154 -8 -195 17 -195 118 0 52 22 93 57 108 40 16
127 28 206 30 l67 1 0 -119z"/>
<path d="M7533 1200 c-99 -21 -177 -88 -209 -181 -16 -44 -19 -83 -19 -219 0
-150 2 -170 24 -224 63 -156 192 -205 476 -177 178 18 169 13 162 83 -3 33 -7
62 -10 65 -3 2 -67 -1 -141 -7 -75 -7 -161 -9 -191 -5 -86 10 -143 60 -160
141 l-6 32 118 6 c204 12 407 36 416 49 15 22 -2 202 -24 264 -27 72 -88 134
-155 158 -56 20 -218 29 -281 15z m216 -148 c52 -26 74 -63 79 -130 l4 -59
-63 -6 c-35 -4 -120 -10 -188 -13 l-124 -7 5 60 c12 125 62 172 183 173 47 0
81 -6 104 -18z"/>
<path d="M5320 1190 c0 -5 61 -172 135 -372 154 -414 160 -423 246 -423 80 0
86 11 242 426 75 201 137 369 137 372 0 4 -37 7 -83 7 l-82 0 -105 -294 c-58
-162 -108 -292 -111 -288 -4 4 -50 129 -102 277 -52 149 -99 278 -102 288 -6
14 -20 17 -91 17 -47 0 -84 -4 -84 -10z"/>
<path d="M890 786 l0 -366 33 13 c54 23 782 349 785 351 2 2 -774 351 -809
364 -5 2 -9 -150 -9 -362z"/>
<path d="M1336 559 c-219 -98 -400 -180 -402 -181 -2 -3 411 -189 759 -342
l57 -26 0 365 c0 201 -3 365 -7 364 -5 0 -188 -81 -407 -180z"/>
</g>
</svg>
